<svg width="31" height="31" viewBox="0 0 31 31" fill="none" xmlns="http://www.w3.org/2000/svg">
<mask id="path-1-inside-1_136_52" fill="white">
<path d="M24.5417 18.0833C26.4663 16.1975 28.4167 13.9371 28.4167 10.9792C28.4167 9.09502 27.6682 7.28805 26.3359 5.95576C25.0036 4.62347 23.1967 3.875 21.3125 3.875C19.0392 3.875 17.4375 4.52083 15.5 6.45833C13.5625 4.52083 11.9608 3.875 9.68751 3.875C7.80337 3.875 5.9964 4.62347 4.66411 5.95576C3.33182 7.28805 2.58334 9.09502 2.58334 10.9792C2.58334 13.95 4.52084 16.2104 6.45834 18.0833L15.5 27.125L24.5417 18.0833Z"/>
</mask>
<path d="M24.5417 18.0833L2.14553 -4.77301C2.06805 -4.69709 1.99096 -4.62078 1.91426 -4.54408L24.5417 18.0833ZM15.5 6.45833L-7.12741 29.0858C5.36937 41.5825 25.6307 41.5825 38.1274 29.0858L15.5 6.45833ZM2.58334 10.9792H-29.4167H2.58334ZM6.45834 18.0833L29.0858 -4.54408C28.9579 -4.67191 28.829 -4.79865 28.6991 -4.92429L6.45834 18.0833ZM15.5 27.125L-7.12741 49.7524C-1.12624 55.7536 7.01308 59.125 15.5 59.125C23.9869 59.125 32.1263 55.7536 38.1274 49.7524L15.5 27.125ZM24.5417 18.0833L46.9378 40.9397C48.792 39.1228 60.4167 28.4667 60.4167 10.9792H28.4167H-3.58332C-3.58332 5.02571 -1.52772 0.533464 0.0292212 -1.96938C1.37565 -4.13382 2.6349 -5.25253 2.14553 -4.77301L24.5417 18.0833ZM28.4167 10.9792H60.4167C60.4167 0.60809 56.2968 -9.33821 48.9633 -16.6717L26.3359 5.95576L3.7085 28.5832C-0.960371 23.9143 -3.58332 17.582 -3.58332 10.9792H28.4167ZM26.3359 5.95576L48.9633 -16.6717C41.6299 -24.0051 31.6836 -28.125 21.3125 -28.125L21.3125 3.875L21.3125 35.875C14.7097 35.875 8.37737 33.2521 3.7085 28.5832L26.3359 5.95576ZM21.3125 3.875V-28.125C16.97 -28.125 11.4253 -27.4777 5.5024 -24.898C-0.213682 -22.4084 -4.3348 -18.9617 -7.12741 -16.1691L15.5 6.45833L38.1274 29.0858C37.2723 29.9409 34.9208 32.0959 31.0582 33.7782C26.9889 35.5506 23.3817 35.875 21.3125 35.875V3.875ZM15.5 6.45833L38.1274 -16.1691C35.3348 -18.9617 31.2137 -22.4084 25.4976 -24.898C19.5747 -27.4777 14.03 -28.125 9.68751 -28.125V3.875V35.875C7.6183 35.875 4.01111 35.5506 -0.0582224 33.7782C-3.92076 32.0959 -6.27229 29.9409 -7.12741 29.0858L15.5 6.45833ZM9.68751 3.875L9.68751 -28.125C-0.683562 -28.125 -10.6299 -24.0051 -17.9633 -16.6717L4.66411 5.95576L27.2915 28.5832C22.6226 33.2521 16.2903 35.875 9.68751 35.875L9.68751 3.875ZM4.66411 5.95576L-17.9633 -16.6717C-25.2968 -9.3382 -29.4167 0.608095 -29.4167 10.9792L2.58334 10.9792L34.5833 10.9792C34.5833 17.582 31.9604 23.9143 27.2915 28.5832L4.66411 5.95576ZM2.58334 10.9792H-29.4167C-29.4167 28.4504 -17.9015 39.0424 -15.7824 41.091L6.45834 18.0833L28.6991 -4.92429C28.2997 -5.31034 29.6005 -4.15957 30.9828 -1.93264C32.5741 0.631188 34.5833 5.10613 34.5833 10.9792H2.58334ZM6.45834 18.0833L-16.1691 40.7108L-7.12741 49.7524L15.5 27.125L38.1274 4.49758L29.0858 -4.54408L6.45834 18.0833ZM15.5 27.125L38.1274 49.7524L47.1691 40.7107L24.5417 18.0833L1.91426 -4.54408L-7.12741 4.49758L15.5 27.125Z" fill="#D72F59" mask="url(#path-1-inside-1_136_52)"/>
</svg>
