<svg width="20" height="24" viewBox="0 0 20 24" fill="none" xmlns="http://www.w3.org/2000/svg">
<path d="M13.1894 1.82788H7.08607C6.52427 1.82788 6.06885 2.28331 6.06885 2.8451V4.87954C6.06885 5.44133 6.52427 5.89676 7.08607 5.89676H13.1894C13.7512 5.89676 14.2066 5.44133 14.2066 4.87954V2.8451C14.2066 2.28331 13.7512 1.82788 13.1894 1.82788Z" stroke="black" stroke-width="2.03444" stroke-linecap="round" stroke-linejoin="round"/>
<path d="M14.2066 3.8623H16.2411C16.7806 3.8623 17.2981 4.07665 17.6796 4.45818C18.0612 4.83971 18.2755 5.35718 18.2755 5.89674V20.1378C18.2755 20.6774 18.0612 21.1949 17.6796 21.5764C17.2981 21.9579 16.7806 22.1723 16.2411 22.1723H4.03444C3.49487 22.1723 2.9774 21.9579 2.59587 21.5764C2.21434 21.1949 2 20.6774 2 20.1378V5.89674C2 5.35718 2.21434 4.83971 2.59587 4.45818C2.9774 4.07665 3.49487 3.8623 4.03444 3.8623H6.06888" stroke="black" stroke-width="2.03444" stroke-linecap="round" stroke-linejoin="round"/>
<path d="M10.1377 10.9829H14.2066" stroke="black" stroke-width="2.03444" stroke-linecap="round" stroke-linejoin="round"/>
<path d="M10.1377 16.0688H14.2066" stroke="black" stroke-width="2.03444" stroke-linecap="round" stroke-linejoin="round"/>
<path d="M6.06885 10.9829H6.07885" stroke="black" stroke-width="2.03444" stroke-linecap="round" stroke-linejoin="round"/>
<path d="M6.06885 16.0688H6.07885" stroke="black" stroke-width="2.03444" stroke-linecap="round" stroke-linejoin="round"/>
</svg>
