<svg width="28" height="24" viewBox="0 0 28 24" fill="none" xmlns="http://www.w3.org/2000/svg">
<path d="M13.4167 15H8.16667C6.92899 15 5.742 15.4214 4.86683 16.1716C3.99167 16.9217 3.5 17.9391 3.5 19V21" stroke="black" stroke-width="2" stroke-linecap="round" stroke-linejoin="round"/>
<path d="M24.941 16.6259C25.4058 16.2275 25.6669 15.6873 25.6669 15.1239C25.6669 14.5605 25.4058 14.0203 24.941 13.6219C24.4763 13.2235 23.8459 12.9998 23.1887 12.9998C22.5314 12.9998 21.9011 13.2235 21.4363 13.6219L16.758 17.6339C16.4806 17.8715 16.2776 18.1652 16.1677 18.4879L15.1912 21.3579C15.1619 21.444 15.1601 21.5352 15.1861 21.622C15.2121 21.7088 15.2648 21.7881 15.3387 21.8515C15.4126 21.9148 15.5051 21.96 15.6064 21.9823C15.7077 22.0045 15.8141 22.003 15.9145 21.9779L19.2628 21.1409C19.6393 21.0467 19.982 20.8727 20.2592 20.6349L24.941 16.6259Z" stroke="black" stroke-width="2" stroke-linecap="round" stroke-linejoin="round"/>
<path d="M11.6667 11C14.244 11 16.3333 9.20914 16.3333 7C16.3333 4.79086 14.244 3 11.6667 3C9.08934 3 7 4.79086 7 7C7 9.20914 9.08934 11 11.6667 11Z" stroke="black" stroke-width="2" stroke-linecap="round" stroke-linejoin="round"/>
</svg>
