<svg width="15" height="16" viewBox="0 0 15 16" fill="none" xmlns="http://www.w3.org/2000/svg">
<path fill-rule="evenodd" clip-rule="evenodd" d="M7.43516 0.881836C3.44879 0.881836 0.220703 4.11715 0.220703 8.10351C0.220703 12.0899 3.44879 15.3252 7.43516 15.3252C11.4287 15.3252 14.6641 12.0899 14.6641 8.10351C14.6641 4.11715 11.4287 0.881836 7.43516 0.881836ZM7.44238 13.8808C4.2504 13.8808 1.66504 11.2955 1.66504 8.10351C1.66504 4.91153 4.2504 2.32617 7.44238 2.32617C10.6344 2.32617 13.2197 4.91153 13.2197 8.10351C13.2197 11.2955 10.6344 13.8808 7.44238 13.8808ZM7.2835 4.49267H7.24017C6.9513 4.49267 6.72021 4.72376 6.72021 5.01263V8.42126C6.72021 8.67402 6.8502 8.91234 7.07407 9.04233L10.0711 10.8405C10.3166 10.985 10.6344 10.9127 10.7788 10.6672C10.9304 10.4217 10.851 10.0967 10.5982 9.95226L7.80346 8.29127V5.01263C7.80346 4.72376 7.57237 4.49267 7.2835 4.49267V4.49267Z" fill="#C3CAD9"/>
</svg>
