<svg width="29" height="24" viewBox="0 0 29 24" fill="none" xmlns="http://www.w3.org/2000/svg">
<path d="M10.875 3H4.83333C4.16599 3 3.625 3.44772 3.625 4V11C3.625 11.5523 4.16599 12 4.83333 12H10.875C11.5423 12 12.0833 11.5523 12.0833 11V4C12.0833 3.44772 11.5423 3 10.875 3Z" fill="#D72F59" stroke="#D31B4A" stroke-width="2" stroke-linecap="round" stroke-linejoin="round"/>
<path d="M24.1667 3H18.125C17.4577 3 16.9167 3.44772 16.9167 4V7C16.9167 7.55228 17.4577 8 18.125 8H24.1667C24.834 8 25.375 7.55228 25.375 7V4C25.375 3.44772 24.834 3 24.1667 3Z" fill="#D72F59" stroke="#D31B4A" stroke-width="2" stroke-linecap="round" stroke-linejoin="round"/>
<path d="M24.1667 12H18.125C17.4577 12 16.9167 12.4477 16.9167 13V20C16.9167 20.5523 17.4577 21 18.125 21H24.1667C24.834 21 25.375 20.5523 25.375 20V13C25.375 12.4477 24.834 12 24.1667 12Z" fill="#D72F59" stroke="#D31B4A" stroke-width="2" stroke-linecap="round" stroke-linejoin="round"/>
<path d="M10.875 16H4.83333C4.16599 16 3.625 16.4477 3.625 17V20C3.625 20.5523 4.16599 21 4.83333 21H10.875C11.5423 21 12.0833 20.5523 12.0833 20V17C12.0833 16.4477 11.5423 16 10.875 16Z" fill="#D72F59" stroke="#D31B4A" stroke-width="2" stroke-linecap="round" stroke-linejoin="round"/>
</svg>
